HIERARCHY
ROOT Hips
{
	OFFSET 0.000000 0.000000 0.000000
	CHANNELS 6 Xposition Yposition Zposition Xrotation Yrotation Zrotation
	JOINT LeftUpLeg_virtual
	{
		OFFSET 0.000000 0.000000 0.000000
		CHANNELS 3 Xrotation Yrotation Zrotation
		JOINT LeftUpLeg
		{
			OFFSET 13.026900 -6.336304 -1.092800
			CHANNELS 3 Xrotation Yrotation Zrotation
			JOINT LeftLeg
			{
				OFFSET 0.524474 -46.096886 9.782700
				CHANNELS 3 Xrotation Yrotation Zrotation
				JOINT LeftFoot
				{
					OFFSET -0.524474 -53.427422 -12.948200
					CHANNELS 3 Xrotation Yrotation Zrotation
					JOINT LeftToeBase
					{
						OFFSET 0.192200 -14.009700 16.364100
						CHANNELS 3 Xrotation Yrotation Zrotation
						JOINT LeftToe_End
						{
							OFFSET -1.784700 -0.561700 9.474800
							CHANNELS 3 Xrotation Yrotation Zrotation
							End Site
							{
								OFFSET 0 0 0
							}
						}
					}
				}
			}
		}
	}
	JOINT RightUpLeg_virtual
	{
		OFFSET 0.000000 0.000000 0.000000
		CHANNELS 3 Xrotation Yrotation Zrotation
		JOINT RightUpLeg
		{
			OFFSET -12.883000 -6.336304 -1.092800
			CHANNELS 3 Xrotation Yrotation Zrotation
			JOINT RightLeg
			{
				OFFSET -0.524587 -46.096825 9.782800
				CHANNELS 3 Xrotation Yrotation Zrotation
				JOINT RightFoot
				{
					OFFSET 0.524587 -53.427383 -12.948300
					CHANNELS 3 Xrotation Yrotation Zrotation
					JOINT RightToeBase
					{
						OFFSET -0.192200 -14.009700 16.364100
						CHANNELS 3 Xrotation Yrotation Zrotation
						JOINT RightToe_End
						{
							OFFSET 1.784700 -0.561700 9.474800
							CHANNELS 3 Xrotation Yrotation Zrotation
							End Site
							{
								OFFSET 0 0 0
							}
						}
					}
				}
			}
		}
	}
	JOINT Spine_virtual
	{
		OFFSET 0.000000 0.000000 0.000000
		CHANNELS 3 Xrotation Yrotation Zrotation
		JOINT Spine
		{
			OFFSET 0.072000 7.257294 -0.789700
			CHANNELS 3 Xrotation Yrotation Zrotation
			JOINT Spine1
			{
				OFFSET 0.000000 12.508769 -0.658067
				CHANNELS 3 Xrotation Yrotation Zrotation
				JOINT Spine1_split
				{
					OFFSET 0.000000 12.508769 -0.658067
					CHANNELS 3 Xrotation Yrotation Zrotation
					JOINT Spine2
					{
						OFFSET 0.000000 12.508769 -0.658067
						CHANNELS 3 Xrotation Yrotation Zrotation
						JOINT Neck_virtual
						{
							OFFSET 0.000000 0.000000 0.000000
							CHANNELS 3 Xrotation Yrotation Zrotation
							JOINT Neck
							{
								OFFSET 0.000000 14.033295 7.520400
								CHANNELS 3 Xrotation Yrotation Zrotation
								JOINT Head
								{
									OFFSET 0.000000 8.198502 5.703100
									CHANNELS 3 Xrotation Yrotation Zrotation
									JOINT HeadTop_End
									{
										OFFSET 0.000000 17.760803 13.332701
										CHANNELS 3 Xrotation Yrotation Zrotation
										End Site
										{
											OFFSET 0 0 0
										}
									}
								}
							}
						}
						JOINT LeftShoulder_virtual
						{
							OFFSET 0.000000 0.000000 0.000000
							CHANNELS 3 Xrotation Yrotation Zrotation
							JOINT LeftShoulder
							{
								OFFSET 6.292450 5.785301 -0.669000
								CHANNELS 3 Xrotation Yrotation Zrotation
								JOINT LeftShoulder_split
								{
									OFFSET 6.292450 5.785301 -0.669000
									CHANNELS 3 Xrotation Yrotation Zrotation
									JOINT LeftArm
									{
										OFFSET 13.907140 -6.093903 1.965100
										CHANNELS 3 Xrotation Yrotation Zrotation
										JOINT LeftForeArm
										{
											OFFSET 34.140198 0.000000 0.000000
											CHANNELS 3 Xrotation Yrotation Zrotation
											JOINT LeftHand
											{
												OFFSET 40.960209 0.000000 0.000000
												CHANNELS 3 Xrotation Yrotation Zrotation
												End Site
												{
													OFFSET 0 0 0
												}
											}
										}
									}
								}
							}
						}
						JOINT RightShoulder_virtual
						{
							OFFSET 0.000000 0.000000 0.000000
							CHANNELS 3 Xrotation Yrotation Zrotation
							JOINT RightShoulder
							{
								OFFSET -6.292450 5.785301 -0.669000
								CHANNELS 3 Xrotation Yrotation Zrotation
								JOINT RightShoulder_split
								{
									OFFSET -6.292450 5.785301 -0.669000
									CHANNELS 3 Xrotation Yrotation Zrotation
									JOINT RightArm
									{
										OFFSET -13.907140 -6.093903 1.965100
										CHANNELS 3 Xrotation Yrotation Zrotation
										JOINT RightForeArm
										{
											OFFSET -34.140198 0.000000 0.000000
											CHANNELS 3 Xrotation Yrotation Zrotation
											JOINT RightHand
											{
												OFFSET -40.960209 0.000000 0.000000
												CHANNELS 3 Xrotation Yrotation Zrotation
												End Site
												{
													OFFSET 0 0 0
												}
											}
										}
									}
								}
							}
						}
					}
				}
			}
		}
	}
}
MOTION
Frames: 4
Frame Time: 0.03333333
-5.223124 107.813461 -2.195347 0.000000 0.000000 0.000000 1.988902 -16.891061 8.309526 -38.976293 -1.698380 -10.629236 2.752530 -2.914543 2.525403 33.068757 -24.539640 3.543843 -3.517772 -0.201132 1.108642 0.000000 0.000000 0.000000 1.491122 -14.929791 8.470739 8.809708 -13.273539 -6.683663 31.950539 6.814910 -3.262122 -13.046888 -1.451575 5.601900 -22.706284 0.291932 -0.869206 0.000000 0.000000 0.000000 0.988530 -15.708079 7.091133 2.321940 5.428736 1.851153 5.965732 9.378424 2.197612 0.708395 -2.429639 0.878718 0.000000 0.000000 0.000000 4.545094 9.177746 2.248967 -2.475004 -0.220967 -1.800847 -6.394290 -2.170376 -12.022004 0.000000 0.000000 0.000000 4.600712 9.499149 2.054271 0.498896 0.731164 -13.347078 1.324876 2.557673 -1.936408 -18.243413 -25.154581 -69.508294 0.642356 -65.394622 -1.616869 0.000000 0.000000 0.000000 4.814040 9.567866 2.290792 0.685836 11.825812 18.987038 -1.513833 2.965316 -1.599223 -43.695746 57.743942 70.203491 -2.438820 39.768746 1.067623 0.000000 0.000000 0.000000 
-4.940372 107.846230 -2.268692 0.000000 0.000000 0.000000 2.039115 -16.712561 8.197143 -39.120107 -2.384038 -10.697383 2.834487 -3.171614 2.358140 33.201355 -24.940147 3.325869 -3.561679 -0.156071 1.102512 0.000000 0.000000 0.000000 1.535108 -14.753326 8.384949 8.775750 -13.627200 -6.918373 31.613114 6.877522 -3.124509 -13.462687 -1.209503 5.675828 -21.944151 0.368040 -1.066266 0.000000 0.000000 0.000000 1.170594 -15.858634 6.896423 2.339485 5.483814 1.935333 5.932494 9.353587 2.172509 0.801343 -2.471905 0.864921 0.000000 0.000000 0.000000 4.564607 9.153879 2.238301 -2.455980 -0.121527 -1.835732 -6.437615 -2.273998 -12.032151 0.000000 0.000000 0.000000 4.577237 9.470971 2.022149 0.504607 0.656433 -13.283709 1.402757 2.665768 -1.903126 -18.591193 -25.339285 -69.618841 0.730339 -65.464925 -1.543615 0.000000 0.000000 0.000000 4.789623 9.540547 2.284537 0.716850 11.652989 18.943465 -1.657415 2.871923 -1.613506 -44.045195 57.734018 70.393255 -2.413623 39.995740 1.050714 0.000000 0.000000 0.000000 
-4.635305 107.739639 -2.369137 0.000000 0.000000 0.000000 1.992576 -16.784063 7.961751 -39.553052 -2.987501 -10.708960 3.366113 -3.399625 2.124652 33.249795 -25.404679 3.093491 -3.517743 -0.023377 1.026363 0.000000 0.000000 0.000000 1.704861 -14.888402 8.151996 9.043498 -13.872364 -6.971435 30.393649 6.966589 -2.960756 -14.046421 -0.913340 5.504038 -20.839404 0.426527 -1.227431 0.000000 0.000000 0.000000 1.293385 -16.066514 6.600028 2.428344 5.596011 2.071411 5.899129 9.322829 2.141704 0.877874 -2.460729 0.828281 0.000000 0.000000 0.000000 4.581317 9.114060 2.207644 -2.668673 -0.011218 -1.860604 -6.745160 -2.419808 -11.939114 0.000000 0.000000 0.000000 4.561194 9.428790 1.977814 0.510884 0.538436 -13.237556 1.382358 2.782850 -1.867122 -19.075383 -25.781939 -69.767637 0.821064 -65.483653 -1.481161 0.000000 0.000000 0.000000 4.771129 9.503103 2.262697 0.739092 11.477359 18.905870 -1.786259 2.753031 -1.570868 -44.384622 57.562218 70.563565 -2.416330 40.662493 1.072820 0.000000 0.000000 0.000000 
-4.378881 107.482399 -2.492771 0.000000 0.000000 0.000000 1.870769 -17.145146 7.635573 -40.129629 -3.498382 -10.671902 4.222753 -3.550779 1.899641 33.108908 -25.820198 2.873666 -3.352536 0.193997 0.848377 0.000000 0.000000 0.000000 1.981779 -15.219272 7.816939 9.618574 -14.074183 -6.826827 28.861060 7.043629 -2.779284 -14.406720 -0.648101 5.026016 -19.960256 0.430995 -1.235582 0.000000 0.000000 0.000000 1.349264 -16.277398 6.246448 2.543948 5.760119 2.239701 5.871649 9.286538 2.107563 0.933819 -2.409236 0.763970 0.000000 0.000000 0.000000 4.592267 9.068781 2.160863 -3.079847 0.074143 -1.876731 -7.275881 -2.581334 -11.757825 0.000000 0.000000 0.000000 4.541070 9.382130 1.930373 0.519125 0.413174 -13.218206 1.258905 2.905352 -1.822836 -19.558897 -26.391457 -69.898182 0.874684 -65.499069 -1.461027 0.000000 0.000000 0.000000 4.748450 9.456990 2.231877 0.746894 11.311521 18.870715 -1.867946 2.691009 -1.544554 -44.583968 57.253125 70.619785 -2.438503 41.647755 1.131906 0.000000 0.000000 0.000000 
